{
  "accessors": [
    {
      "bufferView": 2,
      "componentType": 5126,
      "count": 2294,
      "max": [
        -34.47536849975586,
        -4.546318531036377,
        1.0
      ],
      "min": [
        -36.739776611328125,
        -6.327671527862549,
        -1.0
      ],
      "type": "VEC3"
    },
    {
      "bufferView": 2,
      "byteOffset": 27528,
      "componentType": 5126,
      "count": 2294,
      "max": [
        0.9698222875595093,
        0.9999182224273682,
        0.9904382228851318
      ],
      "min": [
        -0.9904373288154602,
        -0.9951411485671997,
        -1.0
      ],
      "type": "VEC3"
    },
    {
      "bufferView": 1,
      "componentType": 5126,
      "count": 2294,
      "max": [
        0.6653352379798889,
        0.8918154835700989
      ],
      "min": [
        0.0,
        0.0
      ],
      "type": "VEC2"
    },
    {
      "bufferView": 0,
      "componentType": 5125,
      "count": 3360,
      "type": "SCALAR"
    },
    {
      "bufferView": 2,
      "byteOffset": 55056,
      "componentType": 5126,
      "count": 16432,
      "max": [
        2.260505199432373,
        0.8989927172660828,
        0.7503714561462402
      ],
      "min": [
        -2.0647218227386475,
        0.07805509120225906,
        -0.7503714561462402
      ],
      "type": "VEC3"
    },
    {
      "bufferView": 2,
      "byteOffset": 252240,
      "componentType": 5126,
      "count": 16432,
      "max": [
        1.0,
        1.0,
        1.0
      ],
      "min": [
        -0.9999985098838806,
        -1.0,
        -1.0
      ],
      "type": "VEC3"
    },
    {
      "bufferView": 1,
      "byteOffset": 18352,
      "componentType": 5126,
      "count": 16432,
      "max": [
        0.9753105640411377,
        0.641303539276123
      ],
      "min": [
        0.024288952350616455,
        0.014268279075622559
      ],
      "type": "VEC2"
    },
    {
      "bufferView": 0,
      "byteOffset": 13440,
      "componentType": 5125,
      "count": 29856,
      "type": "SCALAR"
    },
    {
      "bufferView": 2,
      "byteOffset": 449424,
      "componentType": 5126,
      "count": 1688,
      "max": [
        2.010735511779785,
        0.5607748031616211,
        0.7645365595817566
      ],
      "min": [
        1.4445468187332153,
        -0.00549813499674201,
        -0.7645365595817566
      ],
      "type": "VEC3"
    },
    {
      "bufferView": 2,
      "byteOffset": 469680,
      "componentType": 5126,
      "count": 1688,
      "max": [
        1.0,
        1.0,
        1.0
      ],
      "min": [
        -1.0,
        -1.0,
        -1.0
      ],
      "type": "VEC3"
    },
    {
      "bufferView": 1,
      "byteOffset": 149808,
      "componentType": 5126,
      "count": 1688,
      "max": [
        0.5778762102127075,
        0.977919340133667
      ],
      "min": [
        0.13603004813194275,
        0.5980449318885803
      ],
      "type": "VEC2"
    },
    {
      "bufferView": 0,
      "byteOffset": 132864,
      "componentType": 5125,
      "count": 6516,
      "type": "SCALAR"
    },
    {
      "bufferView": 2,
      "byteOffset": 489936,
      "componentType": 5126,
      "count": 1896,
      "max": [
        -0.712323784828186,
        0.618868350982666,
        0.7765417695045471
      ],
      "min": [
        -1.2736597061157227,
        0.024344636127352715,
        -0.7765417695045471
      ],
      "type": "VEC3"
    },
    {
      "bufferView": 2,
      "byteOffset": 512688,
      "componentType": 5126,
      "count": 1896,
      "max": [
        1.0,
        0.9995664358139038,
        1.0
      ],
      "min": [
        -1.0,
        -0.9996806383132935,
        -1.0
      ],
      "type": "VEC3"
    },
    {
      "bufferView": 1,
      "byteOffset": 163312,
      "componentType": 5126,
      "count": 1896,
      "max": [
        0.9874298572540283,
        0.985731840133667
      ],
      "min": [
        0.05997191369533539,
        0.1289062649011612
      ],
      "type": "VEC2"
    },
    {
      "bufferView": 0,
      "byteOffset": 158928,
      "componentType": 5125,
      "count": 7914,
      "type": "SCALAR"
    },
    {
      "bufferView": 2,
      "byteOffset": 535440,
      "componentType": 5126,
      "count": 1086,
      "max": [
        29.472837448120117,
        0.052036352455616,
        29.472837448120117
      ],
      "min": [
        -29.472837448120117,
        0.0,
        -52.336395263671875
      ],
      "type": "VEC3"
    },
    {
      "bufferView": 2,
      "byteOffset": 548472,
      "componentType": 5126,
      "count": 1086,
      "max": [
        0.0,
        1.0,
        0.17148305475711823
      ],
      "min": [
        -0.001122871646657586,
        0.9851871728897095,
        -0.11429129540920258
      ],
      "type": "VEC3"
    },
    {
      "bufferView": 1,
      "byteOffset": 178480,
      "componentType": 5126,
      "count": 1086,
      "max": [
        0.7220529317855835,
        0.7773913741111755
      ],
      "min": [
        0.017477065324783325,
        0.2382410168647766
      ],
      "type": "VEC2"
    },
    {
      "bufferView": 0,
      "byteOffset": 190584,
      "componentType": 5125,
      "count": 2244,
      "type": "SCALAR"
    }
  ],
  "asset": {
    "extras": {
      "author": "The 3D Dude (https://sketchfab.com/The_3D_Dude)",
      "license": "CC-BY-4.0 (http://creativecommons.org/licenses/by/4.0/)",
      "source": "https://sketchfab.com/3d-models/full-f1-2022-bcacdcc58e224a949be6f3c4b6d400b3",
      "title": "Full F1 2022"
    },
    "generator": "Sketchfab-13.73.0",
    "version": "2.0"
  },
  "bufferViews": [
    {
      "buffer": 0,
      "byteLength": 199560,
      "name": "floatBufferViews",
      "target": 34963
    },
    {
      "buffer": 0,
      "byteLength": 187168,
      "byteOffset": 199560,
      "byteStride": 8,
      "name": "floatBufferViews",
      "target": 34962
    },
    {
      "buffer": 0,
      "byteLength": 561504,
      "byteOffset": 386728,
      "byteStride": 12,
      "name": "floatBufferViews",
      "target": 34962
    }
  ],
  "buffers": [
    {
      "byteLength": 948232,
      "uri": "scene.bin"
    }
  ],
  "images": [
    {
      "uri": "textures/Material.006_baseColor.png"
    }
  ],
  "materials": [
    {
      "doubleSided": true,
      "name": "Material.006",
      "pbrMetallicRoughness": {
        "baseColorTexture": {
          "index": 0
        },
        "metallicFactor": 0.0,
        "roughnessFactor": 0.5
      }
    },
    {
      "doubleSided": true,
      "name": "Material.002",
      "pbrMetallicRoughness": {
        "baseColorTexture": {
          "index": 0
        },
        "metallicFactor": 0.0,
        "roughnessFactor": 0.5
      }
    },
    {
      "doubleSided": true,
      "name": "Material.003",
      "pbrMetallicRoughness": {
        "baseColorTexture": {
          "index": 0
        },
        "metallicFactor": 0.0,
        "roughnessFactor": 0.5
      }
    },
    {
      "doubleSided": true,
      "name": "Material.004",
      "pbrMetallicRoughness": {
        "baseColorTexture": {
          "index": 0
        },
        "metallicFactor": 0.0,
        "roughnessFactor": 0.5
      }
    },
    {
      "doubleSided": true,
      "name": "Material.005",
      "pbrMetallicRoughness": {
        "baseColorTexture": {
          "index": 0
        },
        "metallicFactor": 0.0,
        "roughnessFactor": 0.5
      }
    }
  ],
  "meshes": [
    {
      "name": "Object_0",
      "primitives": [
        {
          "attributes": {
            "NORMAL": 1,
            "POSITION": 0,
            "TEXCOORD_0": 2
          },
          "indices": 3,
          "material": 0,
          "mode": 4
        }
      ]
    },
    {
      "name": "Object_1",
      "primitives": [
        {
          "attributes": {
            "NORMAL": 5,
            "POSITION": 4,
            "TEXCOORD_0": 6
          },
          "indices": 7,
          "material": 1,
          "mode": 4
        }
      ]
    },
    {
      "name": "Object_2",
      "primitives": [
        {
          "attributes": {
            "NORMAL": 9,
            "POSITION": 8,
            "TEXCOORD_0": 10
          },
          "indices": 11,
          "material": 2,
          "mode": 4
        }
      ]
    },
    {
      "name": "Object_3",
      "primitives": [
        {
          "attributes": {
            "NORMAL": 13,
            "POSITION": 12,
            "TEXCOORD_0": 14
          },
          "indices": 15,
          "material": 3,
          "mode": 4
        }
      ]
    },
    {
      "name": "Object_4",
      "primitives": [
        {
          "attributes": {
            "NORMAL": 17,
            "POSITION": 16,
            "TEXCOORD_0": 18
          },
          "indices": 19,
          "material": 4,
          "mode": 4
        }
      ]
    }
  ],
  "nodes": [
    {
      "children": [
        1
      ],
      "matrix": [
        1.0,
        0.0,
        0.0,
        0.0,
        0.0,
        2.220446049250313e-16,
        -1.0,
        0.0,
        0.0,
        1.0,
        2.220446049250313e-16,
        0.0,
        0.0,
        0.0,
        0.0,
        1.0
      ],
      "name": "Sketchfab_model"
    },
    {
      "children": [
        2
      ],
      "name": "root"
    },
    {
      "children": [
        3,
        5,
        7,
        9,
        11
      ],
      "matrix": [
        1.0,
        0.0,
        0.0,
        0.0,
        0.0,
        2.220446049250313e-16,
        1.0,
        0.0,
        0.0,
        -1.0,
        2.220446049250313e-16,
        0.0,
        0.0,
        0.0,
        0.0,
        1.0
      ],
      "name": "GLTF_SceneRootNode"
    },
    {
      "children": [
        4
      ],
      "matrix": [
        -0.09590387344360352,
        -0.0,
        -0.0,
        -0.0,
        0.0,
        -0.09590387344360352,
        -0.0,
        -0.0,
        0.0,
        -0.0,
        -0.09590387344360352,
        -0.0,
        -3.1700775623321533,
        0.10564736276865005,
        0.0,
        1.0
      ],
      "name": "Sphere_0"
    },
    {
      "mesh": 0,
      "name": "Object_4"
    },
    {
      "children": [
        6
      ],
      "name": "Cube.001_4"
    },
    {
      "mesh": 1,
      "name": "Object_6"
    },
    {
      "children": [
        8
      ],
      "matrix": [
        1.0,
        0.0,
        0.0,
        0.0,
        0.0,
        1.0,
        0.0,
        0.0,
        0.0,
        0.0,
        1.0,
        0.0,
        0.0,
        0.006531775929033756,
        0.0,
        1.0
      ],
      "name": "Cube.002_5"
    },
    {
      "mesh": 2,
      "name": "Object_8"
    },
    {
      "children": [
        10
      ],
      "matrix": [
        1.0,
        0.0,
        0.0,
        0.0,
        0.0,
        1.0,
        0.0,
        0.0,
        0.0,
        0.0,
        1.0,
        0.0,
        0.0,
        0.006531775929033756,
        0.0,
        1.0
      ],
      "name": "Cube.003_6"
    },
    {
      "mesh": 3,
      "name": "Object_10"
    },
    {
      "children": [
        12
      ],
      "name": "Plane_7"
    },
    {
      "mesh": 4,
      "name": "Object_12"
    }
  ],
  "samplers": [
    {
      "magFilter": 9729,
      "minFilter": 9987,
      "wrapS": 10497,
      "wrapT": 10497
    }
  ],
  "scene": 0,
  "scenes": [
    {
      "name": "Sketchfab_Scene",
      "nodes": [
        0
      ]
    }
  ],
  "textures": [
    {
      "sampler": 0,
      "source": 0
    }
  ]
}
